<?xml version="1.0" encoding="utf-8"?><svg width="2048" height="2048" viewBox="0 0 2048 2048" xmlns="http://www.w3.org/2000/svg" xmlns:xlink="http://www.w3.org/1999/xlink"><view id="arrow" viewBox="0 0 512 512"/><svg width="512" height="512" viewBox="0 0 32 32" xmlns="http://www.w3.org/2000/svg"><path d="M24.82 15.29L12.48 3a3.35 3.35 0 0 0-4.63 0 3.27 3.27 0 0 0 0 4.63L16.26 16l-8.41 8.41A3.27 3.27 0 1 0 12.48 29l12.34-12.29a1 1 0 0 0 0-1.42z" data-original="#000000" data-name="right"/></svg><view id="arrow_copy_2" viewBox="512 0 512 512"/><svg width="512" height="512" viewBox="0 0 32 32" x="512" xmlns="http://www.w3.org/2000/svg"><path d="M24.82 15.29L12.48 3a3.35 3.35 0 0 0-4.63 0 3.27 3.27 0 0 0 0 4.63L16.26 16l-8.41 8.41A3.27 3.27 0 1 0 12.48 29l12.34-12.29a1 1 0 0 0 0-1.42z" data-original="#000000" data-name="right"/></svg><view id="arrow_copy_3" viewBox="0 512 512 512"/><svg width="512" height="512" viewBox="0 0 32 32" y="512" xmlns="http://www.w3.org/2000/svg"><path d="M24.82 15.29L12.48 3a3.35 3.35 0 0 0-4.63 0 3.27 3.27 0 0 0 0 4.63L16.26 16l-8.41 8.41A3.27 3.27 0 1 0 12.48 29l12.34-12.29a1 1 0 0 0 0-1.42z" data-original="#000000" data-name="right"/></svg><view id="cargo01" viewBox="512 512 512 512"/><svg width="512" height="512" viewBox="0 0 32 32" x="512" y="512" xmlns="http://www.w3.org/2000/svg"><path d="M13 25h6v2h-6zm0-3a1 1 0 1 0 2 0 1 1 0 0 0-2 0zm4 0a1 1 0 1 0 2 0 1 1 0 0 0-2 0zm-3.586-7h7.867l-1.19 4.758A1.679 1.679 0 0 1 18.5 21h-5c-.827 0-1.5-.673-1.5-1.5v-3.086L10.586 15 12 13.586zm5.305 2H14v2h4.219zM29 7v1c0 1.858-1.28 3.41-3 3.858V27c0 2.206-1.794 4-4 4H10c-2.206 0-4-1.794-4-4V11.858c-1.72-.447-3-2-3-3.858V7c0-.181.05-.359.143-.515L5.37 2.771C5.977 1.761 7.322 1 8.5 1h15c1.179 0 2.524.762 3.129 1.772l2.228 3.713A.997.997 0 0 1 29 7zM5.766 6h20.467l-1.319-2.2c-.242-.404-.942-.8-1.414-.8h-15c-.471 0-1.172.396-1.415.8zM11 8c0 1.103.897 2 2 2s2-.897 2-2zm6 0c0 1.103.897 2 2 2s2-.897 2-2zM7 10c1.103 0 2-.897 2-2H5c0 1.103.897 2 2 2zm17 17V11.858a3.977 3.977 0 0 1-2-1.24c-.733.84-1.8 1.382-3 1.382s-2.266-.542-3-1.382c-.734.84-1.8 1.382-3 1.382s-2.266-.542-3-1.382a3.983 3.983 0 0 1-2 1.24V27c0 1.103.897 2 2 2h12c1.103 0 2-.897 2-2zm3-19h-4c0 1.103.897 2 2 2s2-.897 2-2z" data-original="url(#SVGID_1_)"/></svg><view id="cargo02" viewBox="1024 0 512 512"/><svg width="512" height="512" viewBox="0 0 512 512" x="1024" xmlns="http://www.w3.org/2000/svg"><path d="M236 191h-30c-5.523 0-10-4.477-10-10s4.477-10 10-10h30c5.523 0 10 4.477 10 10s-4.477 10-10 10zm250 85H326c-5.522 0-10-4.477-10-10s4.478-10 10-10h160c5.522 0 10 4.477 10 10s-4.478 10-10 10z" data-original="#000000"/><path d="M336 366H226c-5.523 0-10-4.478-10-10s4.477-10 10-10h100V106H36v240h30c5.523 0 10 4.478 10 10s-4.477 10-10 10H26c-5.523 0-10-4.478-10-10V96c0-5.523 4.477-10 10-10h310c5.522 0 10 4.477 10 10v260c0 5.522-4.478 10-10 10z" data-original="#000000"/><path d="M486 366h-40c-5.522 0-10-4.478-10-10s4.478-10 10-10h30v-76.569L411.109 186H346v160h20c5.522 0 10 4.478 10 10s-4.478 10-10 10h-30c-5.522 0-10-4.478-10-10V176c0-5.523 4.478-10 10-10h80c3.086 0 5.999 1.425 7.894 3.861l70 90A10 10 0 0 1 496 266v90c0 5.522-4.478 10-10 10z" data-original="#000000"/><path d="M406 406c-27.57 0-50-22.43-50-50s22.43-50 50-50 50 22.43 50 50-22.43 50-50 50zm0-80c-16.542 0-30 13.458-30 30s13.458 30 30 30 30-13.458 30-30-13.458-30-30-30zm-300 80c-27.57 0-50-22.43-50-50s22.43-50 50-50 50 22.43 50 50-22.43 50-50 50zm0-80c-16.542 0-30 13.458-30 30s13.458 30 30 30 30-13.458 30-30-13.458-30-30-30z" data-original="#000000"/><path d="M186 406c-27.57 0-50-22.43-50-50s22.43-50 50-50 50 22.43 50 50-22.43 50-50 50zm0-80c-16.542 0-30 13.458-30 30s13.458 30 30 30 30-13.458 30-30-13.458-30-30-30zm140-50H26c-5.523 0-10-4.477-10-10s4.477-10 10-10h300c5.522 0 10 4.477 10 10s-4.478 10-10 10zm160 40h-20c-5.522 0-10-4.478-10-10s4.478-10 10-10h20c5.522 0 10 4.478 10 10s-4.478 10-10 10zM66 226c-5.523 0-10-4.477-10-10v-70c0-5.523 4.477-10 10-10h40c5.523 0 10 4.477 10 10s-4.477 10-10 10H76v60c0 5.523-4.477 10-10 10z" data-original="#000000"/><path d="M96 196H66c-5.523 0-10-4.477-10-10s4.477-10 10-10h30c5.523 0 10 4.477 10 10s-4.477 10-10 10zm60 0h-20c-5.523 0-10-4.477-10-10v-40c0-5.523 4.477-10 10-10h20c16.542 0 30 13.458 30 30s-13.458 30-30 30zm-10-20h10c5.514 0 10-4.486 10-10s-4.486-10-10-10h-10z" data-original="#000000"/><path d="M136 226c-5.523 0-10-4.477-10-10v-30c0-5.523 4.477-10 10-10s10 4.477 10 10v30c0 5.523-4.477 10-10 10z" data-original="#000000"/><path d="M176.009 226.001a9.99 9.99 0 0 1-8.33-4.454l-20-30c-3.063-4.595-1.822-10.804 2.773-13.867 4.595-3.064 10.804-1.822 13.867 2.773l20 30c3.063 4.595 1.822 10.804-2.773 13.867a9.946 9.946 0 0 1-5.537 1.681zM236 226h-30c-5.523 0-10-4.477-10-10v-70c0-5.523 4.477-10 10-10h30c5.523 0 10 4.477 10 10s-4.477 10-10 10h-20v50h20c5.523 0 10 4.477 10 10s-4.477 10-10 10zm60-35h-30c-5.523 0-10-4.477-10-10s4.477-10 10-10h30c5.522 0 10 4.477 10 10s-4.478 10-10 10z" data-original="#000000"/><path d="M296 226h-30c-5.523 0-10-4.477-10-10v-70c0-5.523 4.477-10 10-10h30c5.522 0 10 4.477 10 10s-4.478 10-10 10h-20v50h20c5.522 0 10 4.477 10 10s-4.478 10-10 10zm170 200H46c-5.523 0-10-4.478-10-10s4.477-10 10-10h420c5.522 0 10 4.478 10 10s-4.478 10-10 10zM326 316h-60c-5.523 0-10-4.478-10-10s4.477-10 10-10h60c5.522 0 10 4.478 10 10s-4.478 10-10 10z" data-original="#000000"/></svg><view id="cargo03" viewBox="1024 512 512 512"/><svg width="512" height="512" viewBox="0 0 32 32" x="1024" y="512" xmlns="http://www.w3.org/2000/svg"><path d="M3 22a1 1 0 0 0-1 1c0 1.208.577 2.721 1.483 3.735C4.182 27.518 5.068 28 6 28h20c.932 0 1.818-.482 2.517-1.265C29.423 25.721 30 24.208 30 23a1 1 0 0 0-1-1zm24.823 2H4.177c.169.508.449 1.012.798 1.403.294.33.632.597 1.025.597h20c.393 0 .731-.267 1.025-.597.349-.391.629-.895.798-1.403z" data-original="#000000"/><path d="M28 23V7c0-1.656-1.344-3-3-3H7C5.344 4 4 5.344 4 7v16a1 1 0 0 0 2 0V7a1 1 0 0 1 1-1h18a1 1 0 0 1 1 1v16a1 1 0 0 0 2 0z" data-original="#000000"/><path d="M14 9h4a1 1 0 0 0 0-2h-4a1 1 0 0 0 0 2z" data-original="#000000"/></svg><view id="cargo04" viewBox="0 1024 512 512"/><svg width="512" height="512" viewBox="0 0 32 32" y="1024" xmlns="http://www.w3.org/2000/svg"><path d="M28.23 14.78l-.59-.29-.53-2.16a2.74 2.74 0 0 0-2.67-2.08h-2.69V9A2.75 2.75 0 0 0 19 6.25H5A2.75 2.75 0 0 0 2.25 9v12A2.75 2.75 0 0 0 5 23.75h1.37a2.73 2.73 0 0 0 5.26 0h10.74a2.73 2.73 0 0 0 5.29-.09A2.74 2.74 0 0 0 29.75 21v-3.76a2.73 2.73 0 0 0-1.52-2.46zM3.75 21V9A1.25 1.25 0 0 1 5 7.75h14A1.25 1.25 0 0 1 20.25 9v13.25h-8.62a2.73 2.73 0 0 0-5.26 0H5A1.25 1.25 0 0 1 3.75 21zM9 24.25A1.25 1.25 0 1 1 10.25 23 1.25 1.25 0 0 1 9 24.25zm16 0A1.25 1.25 0 1 1 26.25 23 1.25 1.25 0 0 1 25 24.25zM28.25 21a1.24 1.24 0 0 1-.67 1.09 2.73 2.73 0 0 0-5.21.16h-.62v-10.5h2.69a1.24 1.24 0 0 1 1.21.94l.62 2.49a.8.8 0 0 0 .39.49l.89.45a1.25 1.25 0 0 1 .7 1.12z" data-original="#000000"/><path d="M11 11.75h6a.75.75 0 0 0 0-1.5h-6a.75.75 0 0 0 0 1.5zm-4 4h10a.75.75 0 0 0 0-1.5H7a.75.75 0 0 0 0 1.5z" data-original="#000000"/></svg><view id="mastercard" viewBox="512 1024 512 512"/><svg width="512" height="512" viewBox="0 0 32 32" x="512" y="1024" xmlns="http://www.w3.org/2000/svg"><path d="M24.82 15.29L12.48 3a3.35 3.35 0 0 0-4.63 0 3.27 3.27 0 0 0 0 4.63L16.26 16l-8.41 8.41A3.27 3.27 0 1 0 12.48 29l12.34-12.29a1 1 0 0 0 0-1.42z" data-original="#000000" data-name="right"/></svg><view id="paypal" viewBox="1024 1024 512 512"/><svg width="512" height="512" viewBox="0 0 488.8 488.8" x="1024" y="1024" xmlns="http://www.w3.org/2000/svg"><path d="M381.6 200.4c-12 0-21.6 3.2-29.6 4.8l-2.4 18.4c4-1.6 15.2-4.8 24.8-5.6 9.6 0 15.2 1.6 13.6 10.4-28.8 0-48 5.6-52 24.8-5.6 32 29.6 32.8 43.2 18.4l-1.6 8.8h25.6l11.2-52c4-21.6-15.2-28.8-32.8-28zm1.6 53.6c-1.6 6.4-7.2 8.8-13.6 9.6-5.6 0-10.4-3.2-7.2-9.6 3.2-4.8 10.4-4.8 16-4.8h6.4c-.8-.8-1.6 2.4-1.6 4.8z" data-original="#32a6ce"/><path d="M349.6 223.6c4-1.6 15.2-4.8 24.8-5.6 9.6 0 15.2 1.6 13.6 10.4-28.8 0-48 5.6-52 24.8-5.6 32 29.6 32.8 43.2 18.4l-1.6 8.8h25.6l11.2-52c4.8-21.6-15.2-27.2-32.8-27.2m1.6 52.8c-1.6 6.4-7.2 8.8-13.6 9.6-5.6 0-10.4-3.2-7.2-9.6 3.2-4.8 10.4-4.8 16-4.8h6.4c-.8-.8-1.6 2.4-1.6 4.8z" data-original="#1a80ad"/><path data-original="#32a6ce" d="M436 176.4l-20.8 104h25.6l21.6-104z"/><path data-original="#1a80ad" d="M454.4 176.4l-39.2 104h25.6l21.6-104H436z"/><path d="M316.8 176.4h-47.2l-20.8 104h28l7.2-32h20c19.2 0 35.2-11.2 39.2-31.2 4-23.2-12.8-40.8-26.4-40.8zm-.8 36c-1.6 7.2-8.8 12-16 12h-12.8l5.6-24h13.6c7.2 0 11.2 4.8 9.6 12z" data-original="#32a6ce"/><path d="M316.8 176.4h-32l-36.8 104h28l7.2-32h20c19.2 0 35.2-11.2 39.2-31.2 4.8-23.2-12-40.8-25.6-40.8zm-.8 36c-1.6 7.2-8.8 12-16 12h-12.8l5.6-24h13.6c7.2 0 11.2 4.8 9.6 12z" data-original="#1a80ad"/><path d="M132 200.4c-12 0-21.6 3.2-28.8 4.8l-2.4 18.4c3.2-1.6 15.2-4.8 24.8-5.6 9.6 0 15.2 1.6 13.6 10.4-28 0-47.2 5.6-51.2 24.8-5.6 32 28.8 32.8 42.4 18.4l-1.6 8.8h25.6l11.2-52c4-21.6-16-28.8-33.6-28zm2.4 53.6c-1.6 6.4-7.2 8.8-13.6 9.6-5.6 0-10.4-3.2-6.4-9.6 3.2-4.8 10.4-4.8 15.2-4.8h6.4c-.8-.8-1.6 2.4-1.6 4.8z" data-original="#21789e"/><path d="M101.6 223.6c3.2-1.6 15.2-4.8 24.8-5.6 9.6 0 15.2 1.6 13.6 10.4-28 0-47.2 5.6-51.2 24.8-5.6 32 28.8 32.8 42.4 18.4l-2.4 8.8h25.6l11.2-52c4.8-21.6-15.2-27.2-32.8-27.2m1.6 52.8c-1.6 6.4-7.2 8.8-13.6 9.6-5.6 0-10.4-3.2-6.4-9.6 3.2-4.8 10.4-4.8 15.2-4.8h6.4c-.8-.8-1.6 2.4-1.6 4.8z" data-original="#1a5b80"/><path data-original="#21789e" d="M176 200.4h25.6l4 44.8 25.6-44.8h26.4l-60.8 112H168l18.4-33.6z"/><path data-original="#1a5b80" d="M201.6 202l4 44 25.6-45.6h26.4l-60.8 112H168l18.4-32.8"/><path d="M68.8 176.4h-48L0 280.4h28l7.2-32h20c19.2 0 35.2-11.2 39.2-31.2 4.8-23.2-12-40.8-25.6-40.8zm-.8 36c-1.6 7.2-8.8 12-16 12H39.2l5.6-24h13.6c7.2 0 11.2 4.8 9.6 12z" data-original="#21789e"/><path d="M68.8 176.4H47.2L0 280.4h28l7.2-32h20c19.2 0 35.2-11.2 39.2-31.2 4.8-23.2-12-40.8-25.6-40.8zm-.8 36c-1.6 7.2-8.8 12-16 12H39.2l5.6-24h13.6c7.2 0 11.2 4.8 9.6 12z" data-original="#1a5b80"/><path d="M127.2 228.4c-21.6 1.6-36 8-39.2 24-5.6 32 28.8 32.8 42.4 18.4l-1.6 9.6h25.6l4-19.2-31.2-32.8zm7.2 25.6c-1.6 6.4-7.2 8.8-13.6 9.6-5.6 0-10.4-3.2-6.4-9.6 3.2-4.8 10.4-4.8 15.2-4.8h6.4c-.8-.8-1.6 2.4-1.6 4.8zm72.8-9.6l-1.6 2.4 16.8 16 35.2-62.4h-26.4zM28 280.4l7.2-32-32.8 32z" data-original="#06435e"/><path data-original="#2273aa" d="M276 280.4l7.2-33.6v.8l-32.8 32.8zm100-52c-21.6 1.6-36 8-39.2 24-5.6 32 29.6 32.8 43.2 18.4l-2.4 9.6h25.6l4-19.2-31.2-32.8zm7.2 25.6c-1.6 6.4-7.2 8.8-13.6 9.6-5.6 0-10.4-3.2-7.2-9.6 3.2-4.8 10.4-4.8 16-4.8h6.4c-.8-.8-1.6 2.4-1.6 4.8zm50.4-20.8l-18.4 47.2h25.6l7.2-32z"/><path d="M468 193.2V182h-4v-1.6h10.4v1.6h-4v11.2H468zm8 0v-12.8h2.4l3.2 8.8c0 .8.8 1.6.8 1.6 0-.8 0-.8.8-2.4l3.2-8.8h2.4v12.8h-1.6v-11.2l-4 11.2h-2.4l-4-11.2v11.2h-.8v.8z" data-original="#32a6ce"/></svg><view id="skype" viewBox="1536 0 512 512"/><svg width="512" height="512" viewBox="0 0 32 32" x="1536" xmlns="http://www.w3.org/2000/svg"><path d="M24.82 15.29L12.48 3a3.35 3.35 0 0 0-4.63 0 3.27 3.27 0 0 0 0 4.63L16.26 16l-8.41 8.41A3.27 3.27 0 1 0 12.48 29l12.34-12.29a1 1 0 0 0 0-1.42z" data-original="#000000" data-name="right"/></svg><view id="telegram" viewBox="1536 512 512 512"/><svg width="512" height="512" viewBox="0 0 32 32" x="1536" y="512" xmlns="http://www.w3.org/2000/svg"><path d="M24.82 15.29L12.48 3a3.35 3.35 0 0 0-4.63 0 3.27 3.27 0 0 0 0 4.63L16.26 16l-8.41 8.41A3.27 3.27 0 1 0 12.48 29l12.34-12.29a1 1 0 0 0 0-1.42z" data-original="#000000" data-name="right"/></svg><view id="viber" viewBox="1536 1024 512 512"/><svg width="512" height="512" viewBox="0 0 32 32" x="1536" y="1024" xmlns="http://www.w3.org/2000/svg"><path d="M24.82 15.29L12.48 3a3.35 3.35 0 0 0-4.63 0 3.27 3.27 0 0 0 0 4.63L16.26 16l-8.41 8.41A3.27 3.27 0 1 0 12.48 29l12.34-12.29a1 1 0 0 0 0-1.42z" data-original="#000000" data-name="right"/></svg><view id="visa" viewBox="0 1536 512 512"/><svg width="512" height="512" viewBox="0 0 32 32" y="1536" xmlns="http://www.w3.org/2000/svg"><path d="M24.82 15.29L12.48 3a3.35 3.35 0 0 0-4.63 0 3.27 3.27 0 0 0 0 4.63L16.26 16l-8.41 8.41A3.27 3.27 0 1 0 12.48 29l12.34-12.29a1 1 0 0 0 0-1.42z" data-original="#000000" data-name="right"/></svg></svg>