<?xml version="1.0" encoding="utf-8"?><svg width="2048" height="2048" viewBox="0 0 2048 2048" xmlns="http://www.w3.org/2000/svg" xmlns:xlink="http://www.w3.org/1999/xlink"><view id="arrow" viewBox="0 0 512 512"/><svg width="512" height="512" viewBox="0 0 32 32" xmlns="http://www.w3.org/2000/svg"><path d="M24.82 15.29L12.48 3a3.35 3.35 0 0 0-4.63 0 3.27 3.27 0 0 0 0 4.63L16.26 16l-8.41 8.41A3.27 3.27 0 1 0 12.48 29l12.34-12.29a1 1 0 0 0 0-1.42z" data-original="#000000" data-name="right"/></svg><view id="cargo01" viewBox="512 0 512 512"/><svg width="512" height="512" viewBox="0 0 32 32" x="512" xmlns="http://www.w3.org/2000/svg"><path d="M13 25h6v2h-6zm0-3a1 1 0 1 0 2 0 1 1 0 0 0-2 0zm4 0a1 1 0 1 0 2 0 1 1 0 0 0-2 0zm-3.586-7h7.867l-1.19 4.758A1.679 1.679 0 0 1 18.5 21h-5c-.827 0-1.5-.673-1.5-1.5v-3.086L10.586 15 12 13.586zm5.305 2H14v2h4.219zM29 7v1c0 1.858-1.28 3.41-3 3.858V27c0 2.206-1.794 4-4 4H10c-2.206 0-4-1.794-4-4V11.858c-1.72-.447-3-2-3-3.858V7c0-.181.05-.359.143-.515L5.37 2.771C5.977 1.761 7.322 1 8.5 1h15c1.179 0 2.524.762 3.129 1.772l2.228 3.713A.997.997 0 0 1 29 7zM5.766 6h20.467l-1.319-2.2c-.242-.404-.942-.8-1.414-.8h-15c-.471 0-1.172.396-1.415.8zM11 8c0 1.103.897 2 2 2s2-.897 2-2zm6 0c0 1.103.897 2 2 2s2-.897 2-2zM7 10c1.103 0 2-.897 2-2H5c0 1.103.897 2 2 2zm17 17V11.858a3.977 3.977 0 0 1-2-1.24c-.733.84-1.8 1.382-3 1.382s-2.266-.542-3-1.382c-.734.84-1.8 1.382-3 1.382s-2.266-.542-3-1.382a3.983 3.983 0 0 1-2 1.24V27c0 1.103.897 2 2 2h12c1.103 0 2-.897 2-2zm3-19h-4c0 1.103.897 2 2 2s2-.897 2-2z" data-original="url(#SVGID_1_)"/></svg><view id="cargo02" viewBox="0 512 512 512"/><svg width="512" height="512" viewBox="0 0 512 512" y="512" xmlns="http://www.w3.org/2000/svg"><path d="M236 191h-30c-5.523 0-10-4.477-10-10s4.477-10 10-10h30c5.523 0 10 4.477 10 10s-4.477 10-10 10zm250 85H326c-5.522 0-10-4.477-10-10s4.478-10 10-10h160c5.522 0 10 4.477 10 10s-4.478 10-10 10z" data-original="#000000"/><path d="M336 366H226c-5.523 0-10-4.478-10-10s4.477-10 10-10h100V106H36v240h30c5.523 0 10 4.478 10 10s-4.477 10-10 10H26c-5.523 0-10-4.478-10-10V96c0-5.523 4.477-10 10-10h310c5.522 0 10 4.477 10 10v260c0 5.522-4.478 10-10 10z" data-original="#000000"/><path d="M486 366h-40c-5.522 0-10-4.478-10-10s4.478-10 10-10h30v-76.569L411.109 186H346v160h20c5.522 0 10 4.478 10 10s-4.478 10-10 10h-30c-5.522 0-10-4.478-10-10V176c0-5.523 4.478-10 10-10h80c3.086 0 5.999 1.425 7.894 3.861l70 90A10 10 0 0 1 496 266v90c0 5.522-4.478 10-10 10z" data-original="#000000"/><path d="M406 406c-27.57 0-50-22.43-50-50s22.43-50 50-50 50 22.43 50 50-22.43 50-50 50zm0-80c-16.542 0-30 13.458-30 30s13.458 30 30 30 30-13.458 30-30-13.458-30-30-30zm-300 80c-27.57 0-50-22.43-50-50s22.43-50 50-50 50 22.43 50 50-22.43 50-50 50zm0-80c-16.542 0-30 13.458-30 30s13.458 30 30 30 30-13.458 30-30-13.458-30-30-30z" data-original="#000000"/><path d="M186 406c-27.57 0-50-22.43-50-50s22.43-50 50-50 50 22.43 50 50-22.43 50-50 50zm0-80c-16.542 0-30 13.458-30 30s13.458 30 30 30 30-13.458 30-30-13.458-30-30-30zm140-50H26c-5.523 0-10-4.477-10-10s4.477-10 10-10h300c5.522 0 10 4.477 10 10s-4.478 10-10 10zm160 40h-20c-5.522 0-10-4.478-10-10s4.478-10 10-10h20c5.522 0 10 4.478 10 10s-4.478 10-10 10zM66 226c-5.523 0-10-4.477-10-10v-70c0-5.523 4.477-10 10-10h40c5.523 0 10 4.477 10 10s-4.477 10-10 10H76v60c0 5.523-4.477 10-10 10z" data-original="#000000"/><path d="M96 196H66c-5.523 0-10-4.477-10-10s4.477-10 10-10h30c5.523 0 10 4.477 10 10s-4.477 10-10 10zm60 0h-20c-5.523 0-10-4.477-10-10v-40c0-5.523 4.477-10 10-10h20c16.542 0 30 13.458 30 30s-13.458 30-30 30zm-10-20h10c5.514 0 10-4.486 10-10s-4.486-10-10-10h-10z" data-original="#000000"/><path d="M136 226c-5.523 0-10-4.477-10-10v-30c0-5.523 4.477-10 10-10s10 4.477 10 10v30c0 5.523-4.477 10-10 10z" data-original="#000000"/><path d="M176.009 226.001a9.99 9.99 0 0 1-8.33-4.454l-20-30c-3.063-4.595-1.822-10.804 2.773-13.867 4.595-3.064 10.804-1.822 13.867 2.773l20 30c3.063 4.595 1.822 10.804-2.773 13.867a9.946 9.946 0 0 1-5.537 1.681zM236 226h-30c-5.523 0-10-4.477-10-10v-70c0-5.523 4.477-10 10-10h30c5.523 0 10 4.477 10 10s-4.477 10-10 10h-20v50h20c5.523 0 10 4.477 10 10s-4.477 10-10 10zm60-35h-30c-5.523 0-10-4.477-10-10s4.477-10 10-10h30c5.522 0 10 4.477 10 10s-4.478 10-10 10z" data-original="#000000"/><path d="M296 226h-30c-5.523 0-10-4.477-10-10v-70c0-5.523 4.477-10 10-10h30c5.522 0 10 4.477 10 10s-4.478 10-10 10h-20v50h20c5.522 0 10 4.477 10 10s-4.478 10-10 10zm170 200H46c-5.523 0-10-4.478-10-10s4.477-10 10-10h420c5.522 0 10 4.478 10 10s-4.478 10-10 10zM326 316h-60c-5.523 0-10-4.478-10-10s4.477-10 10-10h60c5.522 0 10 4.478 10 10s-4.478 10-10 10z" data-original="#000000"/></svg><view id="cargo03" viewBox="512 512 512 512"/><svg width="512" height="512" viewBox="0 0 32 32" x="512" y="512" xmlns="http://www.w3.org/2000/svg"><path d="M3 22a1 1 0 0 0-1 1c0 1.208.577 2.721 1.483 3.735C4.182 27.518 5.068 28 6 28h20c.932 0 1.818-.482 2.517-1.265C29.423 25.721 30 24.208 30 23a1 1 0 0 0-1-1zm24.823 2H4.177c.169.508.449 1.012.798 1.403.294.33.632.597 1.025.597h20c.393 0 .731-.267 1.025-.597.349-.391.629-.895.798-1.403z" data-original="#000000"/><path d="M28 23V7c0-1.656-1.344-3-3-3H7C5.344 4 4 5.344 4 7v16a1 1 0 0 0 2 0V7a1 1 0 0 1 1-1h18a1 1 0 0 1 1 1v16a1 1 0 0 0 2 0z" data-original="#000000"/><path d="M14 9h4a1 1 0 0 0 0-2h-4a1 1 0 0 0 0 2z" data-original="#000000"/></svg><view id="cargo04" viewBox="1024 0 512 512"/><svg width="512" height="512" viewBox="0 0 32 32" x="1024" xmlns="http://www.w3.org/2000/svg"><path d="M28.23 14.78l-.59-.29-.53-2.16a2.74 2.74 0 0 0-2.67-2.08h-2.69V9A2.75 2.75 0 0 0 19 6.25H5A2.75 2.75 0 0 0 2.25 9v12A2.75 2.75 0 0 0 5 23.75h1.37a2.73 2.73 0 0 0 5.26 0h10.74a2.73 2.73 0 0 0 5.29-.09A2.74 2.74 0 0 0 29.75 21v-3.76a2.73 2.73 0 0 0-1.52-2.46zM3.75 21V9A1.25 1.25 0 0 1 5 7.75h14A1.25 1.25 0 0 1 20.25 9v13.25h-8.62a2.73 2.73 0 0 0-5.26 0H5A1.25 1.25 0 0 1 3.75 21zM9 24.25A1.25 1.25 0 1 1 10.25 23 1.25 1.25 0 0 1 9 24.25zm16 0A1.25 1.25 0 1 1 26.25 23 1.25 1.25 0 0 1 25 24.25zM28.25 21a1.24 1.24 0 0 1-.67 1.09 2.73 2.73 0 0 0-5.21.16h-.62v-10.5h2.69a1.24 1.24 0 0 1 1.21.94l.62 2.49a.8.8 0 0 0 .39.49l.89.45a1.25 1.25 0 0 1 .7 1.12z" data-original="#000000"/><path d="M11 11.75h6a.75.75 0 0 0 0-1.5h-6a.75.75 0 0 0 0 1.5zm-4 4h10a.75.75 0 0 0 0-1.5H7a.75.75 0 0 0 0 1.5z" data-original="#000000"/></svg><view id="facebook" viewBox="1024 512 512 512"/><svg width="512" height="512" viewBox="0 0 512 512" x="1024" y="512" xmlns="http://www.w3.org/2000/svg"><path d="M448 0H64C28.704 0 0 28.704 0 64v384c0 35.296 28.704 64 64 64h384c35.296 0 64-28.704 64-64V64c0-35.296-28.704-64-64-64z" data-original="#1976d2"/><path d="M432 256h-80v-64c0-17.664 14.336-16 32-16h32V96h-64c-53.024 0-96 42.976-96 96v64h-64v80h64v176h96V336h48l32-80z" data-original="#fafafa"/></svg><view id="mastercard" viewBox="0 1024 512 512"/><svg width="512" height="512" viewBox="0 0 512 512" y="1024" xmlns="http://www.w3.org/2000/svg"><path d="M512 402.281c0 16.716-13.55 30.267-30.265 30.267H30.265C13.55 432.549 0 418.997 0 402.281V109.717c0-16.716 13.55-30.266 30.265-30.266h451.47c16.716 0 30.265 13.551 30.265 30.266v292.564z" data-original="#ffffff"/><path d="M113.64 258.035l-12.022-57.671c-2.055-7.953-8.035-10.319-15.507-10.632H30.993l-.491 2.635c42.929 10.407 71.334 35.513 83.138 65.668z" data-original="#f79f1a"/><path data-original="#059bbf" d="M241.354 190.892h-35.613l-22.242 130.527h35.554zM135.345 321.288l56.01-130.307h-37.691l-34.843 89.028-3.719-13.442c-6.83-16.171-26.35-39.446-49.266-54.098l31.85 108.863 37.659-.044zm207.586-42.538c.132-14.819-9.383-26.122-29.887-35.458-12.461-6.03-20.056-10.051-19.965-16.17 0-5.406 6.432-11.213 20.368-11.213 11.661-.179 20.057 2.367 26.624 5.003l3.218 1.475 4.826-28.277c-7.059-2.637-18.094-5.451-31.895-5.451-35.157 0-59.904 17.691-60.128 43.064-.224 18.763 17.692 29.216 31.181 35.469 13.847 6.374 18.493 10.453 18.404 16.171-.089 8.743-11.035 12.73-21.264 12.73-14.25 0-21.8-1.965-33.509-6.843l-4.55-2.09-4.998 29.249c8.303 3.629 23.668 6.801 39.618 6.933 37.387 0 61.689-17.466 61.957-44.592zm42.302 23.105c4.065 0 40.382.045 45.566.045 1.072 4.545 4.333 19.565 4.333 19.565h33.011L439.33 191.027h-27.472c-8.533 0-14.874 2.323-18.628 10.809l-52.845 119.629h37.392c-.003 0 6.071-16.079 7.456-19.61zm24.389-63.21c-.176.357 2.95-7.549 4.737-12.463l2.411 11.256s6.792 31.182 8.22 37.704h-29.528c2.949-7.504 14.16-36.497 14.16-36.497zm72.113-159.194H30.265C13.55 79.451 0 93.001 0 109.717v31.412h512v-31.412c0-16.716-13.549-30.266-30.265-30.266z"/><path d="M481.735 432.549H30.265C13.55 432.549 0 418.998 0 402.283v-31.412h512v31.412c0 16.715-13.549 30.266-30.265 30.266z" data-original="#f79f1a"/><path d="M21.517 402.281V109.717c0-16.716 13.551-30.266 30.267-30.266h-21.52C13.55 79.451 0 93.001 0 109.717v292.565c0 16.716 13.55 30.267 30.265 30.267h21.52c-16.716 0-30.268-13.552-30.268-30.268z" data-original="#202121" opacity=".15"/></svg><view id="messenger" viewBox="512 1024 512 512"/><svg width="512" height="512" viewBox="0 0 176 176" x="512" y="1024" xmlns="http://www.w3.org/2000/svg"><g data-name="Layer 2"><rect height="176" rx="24" width="176" data-original="#0084ff"/><path d="M143 83.93c0 28.13-24.63 50.93-55 50.93a59.23 59.23 0 0 1-15.78-2.13L53.49 143v-19.42C41 114.25 33 100 33 83.93 33 55.8 57.63 33 88 33s55 22.81 55 50.93z" data-original="#ffffff"/><path d="M123.53 69.67l-30.07 31.9-14-14.93-27.33 14.94L82.2 69.67 96.55 84.6z" data-original="#2196f3"/></g></svg><view id="paypal" viewBox="1024 1024 512 512"/><svg width="512" height="512" viewBox="0 0 512 512" x="1024" y="1024" xmlns="http://www.w3.org/2000/svg"><path d="M429.841 130.083s-12.028 6.408-12.668 9.612c-20.506 107.655-81.529 137.19-173.164 137.19l-46.778-.74c-11.534 0-27.303 16.061-29.225 26.954l-24.18 140.784 6.626 11.086-6.408 43.574c-1.282 6.408 3.204 12.816 10.253 13.457h84.585c9.612 0 17.942-7.049 19.865-16.661l.641-4.486 15.379-98.683c1.804-11.571 8.192-21.787 21.146-21.787h12.175c80.1 0 142.899-32.681 161.482-126.879 7.69-39.089 3.845-72.411-16.661-95.479-6.407-7.69-14.097-13.457-23.068-17.942z" data-original="#009bd9"/><path d="M409.709 109.261c-20.19-6.51-42.115-7.366-63.172-7.366H221.581c-9.612 0-26.424 12.645-28.347 22.257l-28.32 173.821 9.888 5.126c1.922-10.894 11.534-19.224 22.428-19.224h46.778c91.635 0 163.001-37.038 184.147-144.693.641-3.204 1.03-5.607 1.685-9.099 0 0-6.711-15.1-12.187-17.891a97.918 97.918 0 0 0-7.944-2.931z" data-original="#192a67"/><path d="M202.357 130.723c1.282-9.612 9.612-16.661 19.865-16.661h124.315c14.738 0 28.836 1.282 41.011 3.204 8.33 1.282 16.661 3.204 24.991 5.767 6.408 1.922 12.175 4.486 17.302 7.049 6.408-39.73 0-66.643-21.787-91.635C384.985 11.534 342.051 0 286.942 0H128.024c-10.894 0-20.506 8.33-22.428 19.224L38.952 439.589c-1.282 7.69 3.845 14.738 11.534 15.379h99.965l24.991-156.355 26.915-167.89z" data-original="#0a3b82"/></svg><view id="skype" viewBox="1536 0 512 512"/><svg width="512" height="512" viewBox="0 0 400.93 400.93" x="1536" xmlns="http://www.w3.org/2000/svg"><path d="M384.762 231.039c-6.361-8.792-9.309-19.53-9.297-30.382l.001-.19c0-96.649-78.35-174.999-174.999-174.999-21.143 0-41.402 3.763-60.162 10.64-10.149 3.72-21.267 4.435-31.672 1.504-9.191-2.589-19.009-3.681-29.18-2.981C36.728 37.571 2.332 72.586.118 115.355c-1.057 20.414 5.065 39.351 16.053 54.539 6.361 8.792 9.309 19.53 9.296 30.382v.19c0 96.649 78.349 174.999 174.999 174.999 21.144 0 41.403-3.763 60.162-10.64 10.149-3.72 21.267-4.435 31.672-1.504 9.191 2.589 19.008 3.681 29.18 2.981 42.725-2.94 77.12-37.954 79.335-80.722 1.057-20.414-5.065-39.352-16.053-54.541zm-177.889-61.946c35.286 8.391 88.608 21.071 88.608 79.806 0 28.934-14.249 51.006-40.124 62.149-18.464 7.952-39.361 9.025-57.368 9.025-55.336 0-90.286-43.028-91.747-44.86-9.062-11.366-7.197-27.928 4.17-36.99 11.364-9.066 27.926-7.196 36.99 4.167.081.097 20.982 24.101 50.587 25.04 35.65 1.131 43.795-9.476 44.848-18.53 1.287-11.058-8.55-19.176-48.146-28.592-33.562-7.982-84.287-20.044-84.287-74.137 0-16.845 6.851-71.807 95.013-71.807 55.668 0 88.527 43.829 89.899 45.695 8.61 11.713 6.096 28.189-5.617 36.798-11.662 8.572-28.034 6.119-36.677-5.452-.62-.797-19.429-21.723-47.605-24.398-21.32-2.025-42.37 5.663-42.37 17.02 0 12.033 6.045 16.081 43.826 25.066z" data-original="#00aaf2"/></svg><view id="telegram" viewBox="1536 512 512 512"/><svg width="512" height="512" viewBox="0 0 176 176" x="1536" y="512" xmlns="http://www.w3.org/2000/svg"><g data-name="Layer 2"><rect height="176" rx="24" width="176" data-original="#1c8adb"/><path d="M135.94 45.5l-1.82.66-98.78 35.59a3.31 3.31 0 0 0 .29 6.4l25.57 7 4.77 14 4.77 14a4.54 4.54 0 0 0 7.32 1.63l13.21-12.48 25.94 17.59c3.17 2.16 7.69.56 8.5-3l17.18-75.91c.84-3.76-3.12-6.85-6.95-5.48zm-12.61 16.85L78.7 98.83l-2.1 1.72a2.27 2.27 0 0 0-.84 1.48l-.47 3.88-1.29 10.9a.5.5 0 0 1-1 .08L69.37 106l-3.75-11.15a2.26 2.26 0 0 1 1.08-2.67l46.44-26.62 8.74-5c1.27-.74 2.57.87 1.45 1.79z" data-original="#ffffff"/></g></svg><view id="viber" viewBox="1536 1024 512 512"/><svg width="512" height="512" viewBox="0 0 176 176" x="1536" y="1024" xmlns="http://www.w3.org/2000/svg"><g data-name="Layer 2"><g data-name="07.viber"><path d="M144.52 173a532.59 532.59 0 0 1-113 0A32.07 32.07 0 0 1 3 144.52a532.59 532.59 0 0 1 0-113A32.07 32.07 0 0 1 31.48 3a532.59 532.59 0 0 1 113 0A32.07 32.07 0 0 1 173 31.48a532.59 532.59 0 0 1 0 113A32.07 32.07 0 0 1 144.52 173z" data-original="#6f3faa"/><path d="M138.83 61.45v-.13c-1.18-4.78-4.26-9.72-8.3-13.88-4.72-4.88-10.73-8.71-16.47-9.95h-.12a137.68 137.68 0 0 0-51.82 0H62C51.34 39.8 39.77 50.94 37.19 61.32v.13a101.55 101.55 0 0 0 0 43.69v.12c1.84 7.4 8.24 15.18 15.62 19.88a30 30 0 0 0 7.79 3.61v11.58a4.66 4.66 0 0 0 8 3.23l11.74-12.2c2.54.14 5.1.22 7.64.22a138.13 138.13 0 0 0 25.91-2.46h.12c10.63-2.32 22.21-13.46 24.77-23.84v-.12a101.55 101.55 0 0 0 .05-43.71zM129.54 103c-1.72 6.77-10.5 15.2-17.49 16.75A128.49 128.49 0 0 1 84.49 122a.59.59 0 0 0-.48.2l-8.57 8.8-9.12 9.35a1.06 1.06 0 0 1-1.83-.73v-19.2a.66.66 0 0 0-.54-.65 16.94 16.94 0 0 1-4.18-1.6C53.83 115 47.84 108.5 46.46 103a92 92 0 0 1 0-39.49C48.17 56.77 57 48.36 63.94 46.8a128 128 0 0 1 48.11 0c3.85.86 8.25 3.79 11.69 7.39 2.83 2.93 5 6.31 5.8 9.35a92 92 0 0 1 0 39.46z" data-original="#ffffff"/><path d="M112.3 104a14.83 14.83 0 0 1-6.36 7 15.21 15.21 0 0 1-2.75.87c-1.07-.32-2.09-.54-3-.93a75.87 75.87 0 0 1-20.9-12.29 52.64 52.64 0 0 1-5.23-5.13 67.8 67.8 0 0 1-10-15.26c-1.28-2.61-2.36-5.31-3.46-8-1-2.45.48-5 2-6.83a16 16 0 0 1 5.37-4 3.46 3.46 0 0 1 4.31 1A55.86 55.86 0 0 1 79 69.76a4.44 4.44 0 0 1-1.25 6c-.5.35-1 .75-1.43 1.14a4.51 4.51 0 0 0-1.08 1.14 3.13 3.13 0 0 0-.24 2.77c1.93 5.31 4.86 9.74 9.24 12.85A23.88 23.88 0 0 0 89 96.27a7.25 7.25 0 0 0 3.58.88c2.18-.26 2.9-2.67 4.42-3.91a4.19 4.19 0 0 1 5-.23c1.62 1 3.18 2.13 4.74 3.23a52.31 52.31 0 0 1 4.45 3.4 3.52 3.52 0 0 1 1.11 4.36zM89.16 56h-.58zm1.71.08h-1.28c.41-.02.84 0 1.28 0z" data-original="#ffffff"/><path d="M113 86.05c-1 0-1.49-.85-1.56-1.78-.13-1.83-.23-3.67-.48-5.49a22.24 22.24 0 0 0-3.14-8.65 23 23 0 0 0-15.4-10.58c-1.44-.26-2.91-.32-4.36-.47-.92-.1-2.13-.16-2.33-1.3A1.57 1.57 0 0 1 87.28 56a6.26 6.26 0 0 1 .72 0 26.58 26.58 0 0 1 22 12 26.29 26.29 0 0 1 3.78 9.69c.38 2.16.52 4.38.69 6.58a1.54 1.54 0 0 1-1.47 1.78z" data-original="#ffffff"/><path d="M107.59 81.38a3.82 3.82 0 0 1-.12.88 1.47 1.47 0 0 1-2.76.15 4.3 4.3 0 0 1-.15-1.24 16.11 16.11 0 0 0-1.3-6.51c-.2-.44-.42-.89-.67-1.32a14.56 14.56 0 0 0-6.11-5.73 18 18 0 0 0-4.86-1.5c-.74-.12-1.48-.19-2.22-.29a1.41 1.41 0 0 1-1.33-1.57 1.39 1.39 0 0 1 1.55-1.38 20.26 20.26 0 0 1 8.43 2.2 17 17 0 0 1 7.45 7.36 19.22 19.22 0 0 1 1.84 5.9 7.93 7.93 0 0 1 .12.81c.05.6.07 1.2.12 1.94 0 .07.01.16.01.3z" data-original="#ffffff"/><path d="M100.74 80a1.3 1.3 0 0 1-1.06 1h-.22a1.51 1.51 0 0 1-1.52-1 2 2 0 0 1-.12-.51 14.27 14.27 0 0 0-.3-2 5.81 5.81 0 0 0-2.14-3.35 5.66 5.66 0 0 0-1.73-.84c-.79-.23-1.62-.17-2.4-.36a1.48 1.48 0 0 1-1.2-1.71 1.55 1.55 0 0 1 1.63-1.24c4.58.33 8 2.53 8.88 7.44a11.77 11.77 0 0 1 .19 1.38 4 4 0 0 1-.01 1.19z" data-original="#ffffff"/></g></g></svg><view id="visa" viewBox="0 1536 512 512"/><svg width="512" height="512" viewBox="0 0 32 32" y="1536" xmlns="http://www.w3.org/2000/svg"><path d="M24.82 15.29L12.48 3a3.35 3.35 0 0 0-4.63 0 3.27 3.27 0 0 0 0 4.63L16.26 16l-8.41 8.41A3.27 3.27 0 1 0 12.48 29l12.34-12.29a1 1 0 0 0 0-1.42z" data-original="#000000" data-name="right"/></svg><view id="vk" viewBox="512 1536 512 512"/><svg width="512" height="512" viewBox="0 0 512 512" x="512" y="1536" xmlns="http://www.w3.org/2000/svg"><path d="M0 245.333C0 129.682 0 71.856 35.928 35.928S129.682 0 245.333 0h21.333c115.651 0 173.477 0 209.405 35.928C512 71.856 512 129.682 512 245.333v21.333c0 115.651 0 173.477-35.929 209.405C440.144 512 382.318 512 266.667 512h-21.333c-115.651 0-173.477 0-209.405-35.928C0 440.144 0 382.318 0 266.667z" data-original="#2787f5"/><path clip-rule="evenodd" d="M138.676 160h-37.342c-10.669 0-12.803 5.022-12.803 10.558 0 9.889 12.66 58.933 58.946 123.798 30.858 44.298 74.333 68.31 113.894 68.31 23.737 0 26.673-5.333 26.673-14.52v-33.48c0-10.667 2.249-12.796 9.764-12.796 5.539 0 15.034 2.769 37.188 24.127 25.319 25.313 29.493 36.669 43.734 36.669h37.342c10.67 0 16.004-5.333 12.927-15.858-3.368-10.49-15.456-25.71-31.497-43.75-8.704-10.284-21.759-21.358-25.715-26.896-5.538-7.119-3.956-10.284 0-16.611 0 0 45.496-64.075 50.243-85.827 2.373-7.911 0-13.724-11.293-13.724h-37.342c-9.494 0-13.872 5.022-16.246 10.558 0 0-18.989 46.276-45.89 76.336-8.704 8.701-12.66 11.47-17.408 11.47-2.373 0-5.809-2.769-5.809-10.678v-73.962c0-9.493-2.755-13.724-10.669-13.724h-58.68c-5.933 0-9.502 4.405-9.502 8.581 0 8.998 13.451 11.074 14.837 36.387v54.978c0 12.053-2.178 14.239-6.925 14.239-12.659 0-43.453-46.483-61.716-99.672C151.81 164.176 148.22 160 138.676 160z" fill-rule="evenodd" data-original="#ffffff"/></svg></svg>