<?xml version="1.0" encoding="utf-8"?><svg xmlns="http://www.w3.org/2000/svg" xmlns:xlink="http://www.w3.org/1999/xlink"><symbol viewBox="0 0 32 32" id="arrow" xmlns="http://www.w3.org/2000/svg"><path d="M24.82 15.29L12.48 3a3.35 3.35 0 0 0-4.63 0 3.27 3.27 0 0 0 0 4.63L16.26 16l-8.41 8.41A3.27 3.27 0 1 0 12.48 29l12.34-12.29a1 1 0 0 0 0-1.42z" data-original="#000000" data-name="right"/></symbol><symbol viewBox="0 0 32 32" id="cargo01" xmlns="http://www.w3.org/2000/svg"><path d="M13 25h6v2h-6zm0-3a1 1 0 1 0 2 0 1 1 0 0 0-2 0zm4 0a1 1 0 1 0 2 0 1 1 0 0 0-2 0zm-3.586-7h7.867l-1.19 4.758A1.679 1.679 0 0 1 18.5 21h-5c-.827 0-1.5-.673-1.5-1.5v-3.086L10.586 15 12 13.586zm5.305 2H14v2h4.219zM29 7v1c0 1.858-1.28 3.41-3 3.858V27c0 2.206-1.794 4-4 4H10c-2.206 0-4-1.794-4-4V11.858c-1.72-.447-3-2-3-3.858V7c0-.181.05-.359.143-.515L5.37 2.771C5.977 1.761 7.322 1 8.5 1h15c1.179 0 2.524.762 3.129 1.772l2.228 3.713A.997.997 0 0 1 29 7zM5.766 6h20.467l-1.319-2.2c-.242-.404-.942-.8-1.414-.8h-15c-.471 0-1.172.396-1.415.8zM11 8c0 1.103.897 2 2 2s2-.897 2-2zm6 0c0 1.103.897 2 2 2s2-.897 2-2zM7 10c1.103 0 2-.897 2-2H5c0 1.103.897 2 2 2zm17 17V11.858a3.977 3.977 0 0 1-2-1.24c-.733.84-1.8 1.382-3 1.382s-2.266-.542-3-1.382c-.734.84-1.8 1.382-3 1.382s-2.266-.542-3-1.382a3.983 3.983 0 0 1-2 1.24V27c0 1.103.897 2 2 2h12c1.103 0 2-.897 2-2zm3-19h-4c0 1.103.897 2 2 2s2-.897 2-2z" data-original="url(#SVGID_1_)"/></symbol><symbol viewBox="0 0 512 512" id="cargo02" xmlns="http://www.w3.org/2000/svg"><path d="M236 191h-30c-5.523 0-10-4.477-10-10s4.477-10 10-10h30c5.523 0 10 4.477 10 10s-4.477 10-10 10zm250 85H326c-5.522 0-10-4.477-10-10s4.478-10 10-10h160c5.522 0 10 4.477 10 10s-4.478 10-10 10z" data-original="#000000"/><path d="M336 366H226c-5.523 0-10-4.478-10-10s4.477-10 10-10h100V106H36v240h30c5.523 0 10 4.478 10 10s-4.477 10-10 10H26c-5.523 0-10-4.478-10-10V96c0-5.523 4.477-10 10-10h310c5.522 0 10 4.477 10 10v260c0 5.522-4.478 10-10 10z" data-original="#000000"/><path d="M486 366h-40c-5.522 0-10-4.478-10-10s4.478-10 10-10h30v-76.569L411.109 186H346v160h20c5.522 0 10 4.478 10 10s-4.478 10-10 10h-30c-5.522 0-10-4.478-10-10V176c0-5.523 4.478-10 10-10h80c3.086 0 5.999 1.425 7.894 3.861l70 90A10 10 0 0 1 496 266v90c0 5.522-4.478 10-10 10z" data-original="#000000"/><path d="M406 406c-27.57 0-50-22.43-50-50s22.43-50 50-50 50 22.43 50 50-22.43 50-50 50zm0-80c-16.542 0-30 13.458-30 30s13.458 30 30 30 30-13.458 30-30-13.458-30-30-30zm-300 80c-27.57 0-50-22.43-50-50s22.43-50 50-50 50 22.43 50 50-22.43 50-50 50zm0-80c-16.542 0-30 13.458-30 30s13.458 30 30 30 30-13.458 30-30-13.458-30-30-30z" data-original="#000000"/><path d="M186 406c-27.57 0-50-22.43-50-50s22.43-50 50-50 50 22.43 50 50-22.43 50-50 50zm0-80c-16.542 0-30 13.458-30 30s13.458 30 30 30 30-13.458 30-30-13.458-30-30-30zm140-50H26c-5.523 0-10-4.477-10-10s4.477-10 10-10h300c5.522 0 10 4.477 10 10s-4.478 10-10 10zm160 40h-20c-5.522 0-10-4.478-10-10s4.478-10 10-10h20c5.522 0 10 4.478 10 10s-4.478 10-10 10zM66 226c-5.523 0-10-4.477-10-10v-70c0-5.523 4.477-10 10-10h40c5.523 0 10 4.477 10 10s-4.477 10-10 10H76v60c0 5.523-4.477 10-10 10z" data-original="#000000"/><path d="M96 196H66c-5.523 0-10-4.477-10-10s4.477-10 10-10h30c5.523 0 10 4.477 10 10s-4.477 10-10 10zm60 0h-20c-5.523 0-10-4.477-10-10v-40c0-5.523 4.477-10 10-10h20c16.542 0 30 13.458 30 30s-13.458 30-30 30zm-10-20h10c5.514 0 10-4.486 10-10s-4.486-10-10-10h-10z" data-original="#000000"/><path d="M136 226c-5.523 0-10-4.477-10-10v-30c0-5.523 4.477-10 10-10s10 4.477 10 10v30c0 5.523-4.477 10-10 10z" data-original="#000000"/><path d="M176.009 226.001a9.99 9.99 0 0 1-8.33-4.454l-20-30c-3.063-4.595-1.822-10.804 2.773-13.867 4.595-3.064 10.804-1.822 13.867 2.773l20 30c3.063 4.595 1.822 10.804-2.773 13.867a9.946 9.946 0 0 1-5.537 1.681zM236 226h-30c-5.523 0-10-4.477-10-10v-70c0-5.523 4.477-10 10-10h30c5.523 0 10 4.477 10 10s-4.477 10-10 10h-20v50h20c5.523 0 10 4.477 10 10s-4.477 10-10 10zm60-35h-30c-5.523 0-10-4.477-10-10s4.477-10 10-10h30c5.522 0 10 4.477 10 10s-4.478 10-10 10z" data-original="#000000"/><path d="M296 226h-30c-5.523 0-10-4.477-10-10v-70c0-5.523 4.477-10 10-10h30c5.522 0 10 4.477 10 10s-4.478 10-10 10h-20v50h20c5.522 0 10 4.477 10 10s-4.478 10-10 10zm170 200H46c-5.523 0-10-4.478-10-10s4.477-10 10-10h420c5.522 0 10 4.478 10 10s-4.478 10-10 10zM326 316h-60c-5.523 0-10-4.478-10-10s4.477-10 10-10h60c5.522 0 10 4.478 10 10s-4.478 10-10 10z" data-original="#000000"/></symbol><symbol viewBox="0 0 32 32" id="cargo03" xmlns="http://www.w3.org/2000/svg"><path d="M3 22a1 1 0 0 0-1 1c0 1.208.577 2.721 1.483 3.735C4.182 27.518 5.068 28 6 28h20c.932 0 1.818-.482 2.517-1.265C29.423 25.721 30 24.208 30 23a1 1 0 0 0-1-1zm24.823 2H4.177c.169.508.449 1.012.798 1.403.294.33.632.597 1.025.597h20c.393 0 .731-.267 1.025-.597.349-.391.629-.895.798-1.403z" data-original="#000000"/><path d="M28 23V7c0-1.656-1.344-3-3-3H7C5.344 4 4 5.344 4 7v16a1 1 0 0 0 2 0V7a1 1 0 0 1 1-1h18a1 1 0 0 1 1 1v16a1 1 0 0 0 2 0z" data-original="#000000"/><path d="M14 9h4a1 1 0 0 0 0-2h-4a1 1 0 0 0 0 2z" data-original="#000000"/></symbol><symbol viewBox="0 0 32 32" id="cargo04" xmlns="http://www.w3.org/2000/svg"><path d="M28.23 14.78l-.59-.29-.53-2.16a2.74 2.74 0 0 0-2.67-2.08h-2.69V9A2.75 2.75 0 0 0 19 6.25H5A2.75 2.75 0 0 0 2.25 9v12A2.75 2.75 0 0 0 5 23.75h1.37a2.73 2.73 0 0 0 5.26 0h10.74a2.73 2.73 0 0 0 5.29-.09A2.74 2.74 0 0 0 29.75 21v-3.76a2.73 2.73 0 0 0-1.52-2.46zM3.75 21V9A1.25 1.25 0 0 1 5 7.75h14A1.25 1.25 0 0 1 20.25 9v13.25h-8.62a2.73 2.73 0 0 0-5.26 0H5A1.25 1.25 0 0 1 3.75 21zM9 24.25A1.25 1.25 0 1 1 10.25 23 1.25 1.25 0 0 1 9 24.25zm16 0A1.25 1.25 0 1 1 26.25 23 1.25 1.25 0 0 1 25 24.25zM28.25 21a1.24 1.24 0 0 1-.67 1.09 2.73 2.73 0 0 0-5.21.16h-.62v-10.5h2.69a1.24 1.24 0 0 1 1.21.94l.62 2.49a.8.8 0 0 0 .39.49l.89.45a1.25 1.25 0 0 1 .7 1.12z" data-original="#000000"/><path d="M11 11.75h6a.75.75 0 0 0 0-1.5h-6a.75.75 0 0 0 0 1.5zm-4 4h10a.75.75 0 0 0 0-1.5H7a.75.75 0 0 0 0 1.5z" data-original="#000000"/></symbol><symbol viewBox="0 0 512 512" id="facebook" xmlns="http://www.w3.org/2000/svg"><path d="M512 256C512 114.6 397.4 0 256 0S0 114.6 0 256s114.6 256 256 256c1.5 0 3 0 4.5-.1V312.7h-55v-64.1h55v-47.2c0-54.7 33.4-84.5 82.2-84.5 23.4 0 43.5 1.7 49.3 2.5v57.2h-33.6c-26.5 0-31.7 12.6-31.7 31.1v40.8h63.5l-8.3 64.1h-55.2v189.5C433.7 471.4 512 372.9 512 256z" data-original="#000000"/></symbol><symbol viewBox="0 0 512 512" id="mastercard" xmlns="http://www.w3.org/2000/svg"><path d="M481.28 81.92H30.72C13.783 81.92 0 95.703 0 112.64v286.72c0 16.937 13.783 30.72 30.72 30.72h450.56c16.937 0 30.72-13.783 30.72-30.72V112.64c0-16.937-13.783-30.72-30.72-30.72zm10.24 317.44c0 5.632-4.608 10.24-10.24 10.24H30.72c-5.652 0-10.24-4.608-10.24-10.24V112.64c0-5.653 4.588-10.24 10.24-10.24h450.56c5.632 0 10.24 4.587 10.24 10.24v286.72z" data-original="#000000"/><path data-original="#000000" d="M10.24 174.08h491.52v40.96H10.24z"/><path d="M501.76 163.84H10.24C4.588 163.84 0 168.427 0 174.08v40.96c0 5.653 4.588 10.24 10.24 10.24h491.52c5.652 0 10.24-4.587 10.24-10.24v-40.96c0-5.653-4.588-10.24-10.24-10.24zm-10.24 40.96H20.48v-20.48h471.04v20.48zm-215.04 81.92H92.16c-5.652 0-10.24 4.588-10.24 10.24s4.588 10.24 10.24 10.24h184.32c5.652 0 10.24-4.588 10.24-10.24 0-5.653-4.588-10.24-10.24-10.24zm-81.92 40.96H92.16c-5.652 0-10.24 4.588-10.24 10.24s4.588 10.24 10.24 10.24h102.4c5.652 0 10.24-4.588 10.24-10.24s-4.588-10.24-10.24-10.24z" data-original="#000000"/></symbol><symbol viewBox="0 0 512 512" id="messenger" xmlns="http://www.w3.org/2000/svg"><path d="M256 0C114.624 0 0 106.112 0 237.024c0 74.592 37.216 141.12 95.392 184.576V512l87.168-47.84c23.264 6.432 47.904 9.92 73.44 9.92 141.376 0 256-106.112 256-237.024S397.376 0 256 0zm25.44 319.2l-65.184-69.536-127.2 69.536 139.936-148.544 66.784 69.536 125.6-69.536L281.44 319.2z" data-original="#000000"/></symbol><symbol viewBox="0 0 50.41 50.41" id="paypal" xmlns="http://www.w3.org/2000/svg"><path d="M9.035 20.604a2.043 2.043 0 0 0-.75-.809 3.513 3.513 0 0 0-1.193-.438 9.75 9.75 0 0 0-1.621-.128l-2.867.002a.718.718 0 0 0-.66.524L.015 28.157c-.07.284.117.522.415.522h1.373a.703.703 0 0 0 .659-.522l.471-2.04a.703.703 0 0 1 .658-.521h.393c1.679-.002 2.979-.345 3.913-1.032.939-.688 1.402-1.597 1.402-2.723-.001-.493-.082-.907-.264-1.237zm-2.961 2.745c-.415.304-.992.456-1.736.456h-.336c-.299 0-.482-.236-.417-.524l.413-1.784c.058-.286.359-.523.654-.521l.45-.003c.525 0 .926.091 1.194.267.265.174.398.451.396.818.008.558-.205.987-.618 1.291zm42.101-3.462l-.086.026-.115.016-.141-.022-.072-.07-.033-.11-.002-.165v-.611h.459v-.189h-.459v-.381h-.227v.381h-.154v.189h.154v.711l.106.352.312.112.131-.011.139-.027v-.201zm2.129-1.028l-.328-.135-.242.049-.246.166-.143-.159-.232-.055-.223.049-.211.136v-.148h-.223v1.335h.222V19.1l.187-.116.186-.046.152.027.075.077.033.128.011.165v.763h.223v-.854l-.004-.071-.004-.065.19-.121.188-.047.147.027.08.077.028.129.015.163v.763h.224v-.867zm-34.648 2.946c-.518-.292-1.336-.438-2.454-.438-.553 0-1.104.043-1.661.129-.411.063-.451.075-.704.13-.522.114-.604.635-.604.635l-.168.691c-.095.441.159.424.265.387.228-.068.355-.138.821-.242.445-.101.914-.177 1.286-.172.549 0 .969.058 1.249.176.276.12.414.326.414.624l-.024.194-.198.122c-.779.049-1.342.121-2.025.22-.668.093-1.254.256-1.741.479-.523.23-.911.539-1.182.932-.262.395-.393.874-.393 1.436 0 .529.19.966.559 1.304.371.332.861.494 1.447.494.371-.002.658-.031.862-.08l.665-.229.563-.312.518-.342.007.01-.052.22-.003.009v.002c-.056.268.106.488.367.514l.005.006h1.275l.018-.008a.71.71 0 0 0 .591-.514l1.001-4.333.052-.353.024-.331c.004-.614-.261-1.069-.78-1.36zm-2.214 4.872l-.214.282-.54.279a1.923 1.923 0 0 1-.718.155c-.338 0-.603-.049-.782-.149l-.265-.515c0-.279.064-.5.201-.67l.582-.396c.249-.084.553-.155.905-.204.314-.039.934-.11 1.015-.112l.095.167c-.019.095-.195.831-.279 1.163zm27.152-4.866c-.521-.292-1.338-.439-2.453-.439-.553 0-1.105.043-1.66.132-.412.06-.453.073-.707.127-.521.113-.602.636-.602.636l-.168.69c-.094.441.154.421.27.387.229-.068.352-.135.814-.243.443-.1.916-.174 1.289-.172.547 0 .967.059 1.246.177.278.12.414.328.414.623l-.021.193-.196.125c-.787.047-1.351.119-2.027.218-.666.093-1.254.255-1.742.479-.521.231-.914.54-1.182.934-.265.395-.394.873-.394 1.43 0 .533.188.97.562 1.306.373.331.858.497 1.444.497.369-.004.656-.028.861-.081l.663-.226.568-.312.514-.346.009.011-.047.222-.005.004.002.004c-.062.268.101.49.365.514l.002.005h1.274l.021-.007a.703.703 0 0 0 .584-.518l1.004-4.327.053-.355.029-.332c.001-.612-.261-1.065-.784-1.356zm-2.209 4.872l-.223.285-.535.277a1.945 1.945 0 0 1-.715.155c-.349 0-.607-.05-.781-.15l-.268-.513c0-.28.065-.499.196-.672.133-.163.336-.297.588-.395a5.1 5.1 0 0 1 .904-.203c.312-.039.93-.112 1.01-.113l.097.167c-.014.095-.191.828-.273 1.162zm-4.416-6.048a2.124 2.124 0 0 0-.756-.812 3.37 3.37 0 0 0-1.193-.438 9.44 9.44 0 0 0-1.615-.126l-2.871.002a.713.713 0 0 0-.655.522l-1.931 8.406c-.07.285.122.521.414.521l1.375-.002a.712.712 0 0 0 .66-.52l.465-2.041a.712.712 0 0 1 .66-.521h.393c1.681 0 2.984-.346 3.922-1.031.927-.693 1.396-1.6 1.396-2.727-.005-.491-.09-.906-.264-1.233zm-2.961 2.749c-.414.298-.992.45-1.732.45h-.342a.411.411 0 0 1-.42-.523l.416-1.781a.698.698 0 0 1 .656-.521l.445-.003c.528.003.924.09 1.194.266.269.176.396.452.399.818.003.558-.204.988-.616 1.294zm14.734-3.534c.063-.287-.117-.52-.412-.516H44.1c-.252 0-.479.187-.59.417l-.068.106-.062.272-1.719 7.814-.056.24.002.006c-.057.257.101.451.345.488l.021.029h1.277c.25 0 .485-.19.592-.424l.066-.1 1.838-8.331-.004-.001zm-20.756 1.622c-.325.004-1.646 0-1.646 0-.296 0-.676.239-.864.524 0 0-1.966 3.374-2.157 3.713l-.228-.003-.612-3.687c-.068-.29-.371-.538-.748-.538l-1.23.002c-.296 0-.478.236-.411.524 0 0 .934 5.315 1.121 6.566.087.69-.011.813-.011.813l-1.216 2.118c-.18.288-.083.523.212.523l1.422-.002c.296 0 .685-.233.861-.522l5.47-9.252c0 .001.526-.79.037-.779z" data-original="#000000"/></symbol><symbol viewBox="0 0 400.93 400.93" id="skype" xmlns="http://www.w3.org/2000/svg"><path d="M384.762 231.039c-6.361-8.792-9.309-19.53-9.297-30.382l.001-.19c0-96.649-78.35-174.999-174.999-174.999-21.143 0-41.402 3.763-60.162 10.64-10.149 3.72-21.267 4.435-31.672 1.504-9.191-2.589-19.009-3.681-29.18-2.981C36.728 37.571 2.332 72.586.118 115.355c-1.057 20.414 5.065 39.351 16.053 54.539 6.361 8.792 9.309 19.53 9.296 30.382v.19c0 96.649 78.349 174.999 174.999 174.999 21.144 0 41.403-3.763 60.162-10.64 10.149-3.72 21.267-4.435 31.672-1.504 9.191 2.589 19.008 3.681 29.18 2.981 42.725-2.94 77.12-37.954 79.335-80.722 1.057-20.414-5.065-39.352-16.053-54.541zm-177.889-61.946c35.286 8.391 88.608 21.071 88.608 79.806 0 28.934-14.249 51.006-40.124 62.149-18.464 7.952-39.361 9.025-57.368 9.025-55.336 0-90.286-43.028-91.747-44.86-9.062-11.366-7.197-27.928 4.17-36.99 11.364-9.066 27.926-7.196 36.99 4.167.081.097 20.982 24.101 50.587 25.04 35.65 1.131 43.795-9.476 44.848-18.53 1.287-11.058-8.55-19.176-48.146-28.592-33.562-7.982-84.287-20.044-84.287-74.137 0-16.845 6.851-71.807 95.013-71.807 55.668 0 88.527 43.829 89.899 45.695 8.61 11.713 6.096 28.189-5.617 36.798-11.662 8.572-28.034 6.119-36.677-5.452-.62-.797-19.429-21.723-47.605-24.398-21.32-2.025-42.37 5.663-42.37 17.02 0 12.033 6.045 16.081 43.826 25.066z" data-original="#00aaf2"/></symbol><symbol viewBox="0 0 24 24" id="telegram" xmlns="http://www.w3.org/2000/svg"><path d="M12 24c6.629 0 12-5.371 12-12S18.629 0 12 0 0 5.371 0 12s5.371 12 12 12zM5.491 11.74l11.57-4.461c.537-.194 1.006.131.832.943l.001-.001-1.97 9.281c-.146.658-.537.818-1.084.508l-3-2.211-1.447 1.394c-.16.16-.295.295-.605.295l.213-3.053 5.56-5.023c.242-.213-.054-.333-.373-.121l-6.871 4.326-2.962-.924c-.643-.204-.657-.643.136-.953z" data-original="#000000"/></symbol><symbol viewBox="0 0 176 176" id="viber" xmlns="http://www.w3.org/2000/svg"><g data-name="Layer 2"><g data-name="12.viber"><path d="M129.54 61.54c-.77-3-3-6.42-5.8-9.35-3.44-3.6-7.84-6.53-11.69-7.39a128 128 0 0 0-48.11 0c-7 1.56-15.77 10-17.48 16.74a92 92 0 0 0 0 39.49c1.38 5.46 7.37 12 13.3 15.14a16.6 16.6 0 0 0 4.18 1.61.65.65 0 0 1 .54.64v19.2a1.06 1.06 0 0 0 1.83.73l9.13-9.35 8.56-8.8a.62.62 0 0 1 .48-.2 129.12 129.12 0 0 0 27.56-2.22c7-1.56 15.77-10 17.49-16.75a92 92 0 0 0 .01-39.49zM112.3 102a14.81 14.81 0 0 1-6.36 7 14.48 14.48 0 0 1-2.75.88c-1.07-.33-2.09-.54-3-.94a75.6 75.6 0 0 1-20.85-12.3 55 55 0 0 1-5.23-5.13 67.64 67.64 0 0 1-10-15.27c-1.28-2.6-2.36-5.31-3.46-8-1-2.45.48-5 2-6.82a15.83 15.83 0 0 1 5.37-4 3.44 3.44 0 0 1 4.31 1A56.27 56.27 0 0 1 79 67.75a4.45 4.45 0 0 1-1.25 6c-.5.34-1 .75-1.43 1.13a4.55 4.55 0 0 0-1.08 1.15 3.13 3.13 0 0 0-.24 2.78c1.93 5.31 4.86 9.73 9.24 12.84A23.91 23.91 0 0 0 89 94.27a7.14 7.14 0 0 0 3.58.87c2.18-.26 2.9-2.66 4.42-3.91a4.19 4.19 0 0 1 5-.22c1.62 1 3.18 2.12 4.74 3.23a52.2 52.2 0 0 1 4.45 3.39 3.54 3.54 0 0 1 1.11 4.37zM97.94 78a2.11 2.11 0 0 1-.12-.51 14.07 14.07 0 0 0-.3-2 5.8 5.8 0 0 0-2.14-3.36 5.9 5.9 0 0 0-1.73-.84c-.79-.22-1.62-.16-2.4-.35a1.48 1.48 0 0 1-1.2-1.71 1.55 1.55 0 0 1 1.63-1.25c4.58.34 8 2.54 8.88 7.45a11.48 11.48 0 0 1 .19 1.38 4 4 0 0 1 0 1.25 1.29 1.29 0 0 1-1.06 1h-.22A1.5 1.5 0 0 1 97.94 78zm-1.46-12.39a18 18 0 0 0-4.86-1.49c-.74-.12-1.48-.19-2.22-.29a1.41 1.41 0 0 1-1.33-1.58 1.39 1.39 0 0 1 1.55-1.37 20.26 20.26 0 0 1 8.43 2.2 17 17 0 0 1 7.45 7.35 19.28 19.28 0 0 1 1.84 5.91 7.54 7.54 0 0 1 .12.81c.05.6.07 1.19.12 1.94v.28a4 4 0 0 1-.12.88 1.47 1.47 0 0 1-2.76.14 4.22 4.22 0 0 1-.15-1.24 16.1 16.1 0 0 0-1.3-6.5 13.63 13.63 0 0 0-.67-1.32 14.64 14.64 0 0 0-6.1-5.72zM113 84.05c-1 0-1.49-.85-1.56-1.78-.13-1.83-.23-3.67-.48-5.49a22.34 22.34 0 0 0-3.14-8.66 23 23 0 0 0-15.4-10.58c-1.44-.25-2.91-.31-4.36-.47-.92-.09-2.13-.15-2.33-1.3A1.58 1.58 0 0 1 87.28 54h1.07A26.54 26.54 0 0 1 110 66a26.24 26.24 0 0 1 3.78 9.68c.38 2.17.52 4.39.69 6.59a1.55 1.55 0 0 1-1.47 1.78z" data-original="#000000"/><path d="M88 0a88 88 0 1 0 88 88A88 88 0 0 0 88 0zm50.83 103.13v.12c-2.56 10.39-14.14 21.52-24.77 23.84h-.12A138.13 138.13 0 0 1 88 129.58c-2.54 0-5.1-.08-7.64-.23l-11.74 12.21a4.66 4.66 0 0 1-8-3.23v-11.59a29.69 29.69 0 0 1-7.79-3.61c-7.38-4.69-13.78-12.48-15.62-19.88v-.12a101.55 101.55 0 0 1 0-43.69v-.13C39.77 48.93 51.34 37.8 62 35.48h.12a137.68 137.68 0 0 1 51.82 0h.12c5.74 1.25 11.75 5.07 16.47 10 4 4.15 7.12 9.1 8.3 13.87v.13a101.55 101.55 0 0 1 0 43.65z" data-original="#000000"/></g></g></symbol><symbol viewBox="0 0 47.83 47.83" id="visa" xmlns="http://www.w3.org/2000/svg"><path data-original="#000000" d="M19.153 16.799l-2.431 14.266h3.888l2.433-14.266zm-5.691.016l-3.808 9.729-.406-1.469c-.751-1.77-2.883-4.312-5.386-5.914l3.482 11.897 4.114-.007 6.123-14.239-4.119.003z"/><path d="M7.772 17.836c-.226-.869-.881-1.128-1.694-1.159H.05l-.05.284c4.691 1.138 7.795 3.88 9.083 7.177l-1.311-6.302zm23.151 1.698a7.178 7.178 0 0 1 2.91.546l.351.165.526-3.092c-.77-.289-1.977-.599-3.483-.599-3.842 0-6.55 1.935-6.571 4.708-.025 2.049 1.929 3.193 3.405 3.876 1.515.7 2.023 1.145 2.016 1.77-.012.955-1.208 1.393-2.325 1.393-1.557 0-2.384-.215-3.661-.747l-.501-.228-.547 3.193c.91.399 2.589.742 4.332.76 4.087 0 6.743-1.912 6.771-4.875.017-1.621-1.02-2.858-3.267-3.873-1.36-.662-2.192-1.102-2.184-1.77 0-.593.706-1.227 2.228-1.227zm13.765-2.719h-3.004c-.933 0-1.627.254-2.037 1.184l-5.773 13.074h4.083s.666-1.758.817-2.143l4.979.006c.116.498.474 2.137.474 2.137h3.607l-3.146-14.258zm-4.795 9.195c.32-.819 1.549-3.987 1.549-3.987-.021.039.317-.825.518-1.362l.262 1.23.901 4.119h-3.23z" data-original="#000000"/></symbol><symbol viewBox="0 0 176 176" id="vk" xmlns="http://www.w3.org/2000/svg"><g data-name="Layer 2"><path d="M88 0a88 88 0 1 0 88 88A88 88 0 0 0 88 0zm50.72 122.44c-2.56.36-15.08 0-15.73 0a12.29 12.29 0 0 1-8.69-3.44c-2.64-2.55-5-5.35-7.58-8a20.22 20.22 0 0 0-2.47-2.24c-2.06-1.58-4.1-1.23-5.07 1.21A47.37 47.37 0 0 0 97.6 118c-.17 2.46-1.73 4-4.49 4.17-1.71.09-3.42.13-5.11.08a38.85 38.85 0 0 1-17.69-4.37 48.15 48.15 0 0 1-15.13-13.22c-6.67-8.52-12-17.88-16.76-27.53-.25-.49-5.13-10.87-5.25-11.36-.44-1.63 0-3.2 1.35-3.75.86-.33 16.94 0 17.21 0a5.64 5.64 0 0 1 5.4 3.89 84 84 0 0 0 12.08 21.18 11.56 11.56 0 0 0 2.45 2.23c1.31.9 2.55.59 3.09-.93a26.28 26.28 0 0 0 1.12-6.45c.09-4.34 0-7.19-.24-11.53-.16-2.78-1.14-5.21-5.24-6-1.26-.23-1.37-1.27-.56-2.31 1.69-2.15 4-2.5 6.59-2.63 3.86-.22 7.72-.07 11.58 0h.84a23.91 23.91 0 0 1 5 .51 4.61 4.61 0 0 1 3.67 4.11 16 16 0 0 1 .25 3.32c-.1 4.73-.33 9.47-.38 14.2a24.3 24.3 0 0 0 .51 5.59c.55 2.52 2.28 3.15 4 1.33A62.34 62.34 0 0 0 108 81a75.78 75.78 0 0 0 8-15.55c1.12-2.81 2-3.43 5-3.43h17.06a10.12 10.12 0 0 1 3 .4 2.59 2.59 0 0 1 1.79 3.35c-.84 3.74-2.86 6.93-5 10-3.47 4.91-7.13 9.7-10.68 14.55a19.78 19.78 0 0 0-1.17 1.95c-1.34 2.42-1.24 3.77.7 5.77 3.1 3.19 6.41 6.17 9.4 9.45a55.77 55.77 0 0 1 5.92 7.69c2.13 3.44.78 6.68-3.3 7.26z" data-original="#000000" data-name="11.vk"/></g></symbol></svg>